PathFileType	4	(X/Y/Z)	s02c0001.trc
DataRate	CameraRate	NumFrames	NumMarkers	Units	OrigDataRate	OrigDataStartFrame	OrigNumFrames
200	200	5	49	mm	200	750	2000
Frame#	Time	racr			lacr			c7			jug			rlel			rdr			llel			ldr			s2			lic			ric			lasi			rasi			rpsi			lpsi			rgt			lgt			rth1			rth2			rth3			rth4			rlfc			rmfc			rsh1			rsh2			rsh3			rsh4			rlmal			rmmal			rcal			rtoe			rmt5			rmt1			lth1			lth2			lth4			lth3			llfc			lmfc			lsh1			lsh2			lsh3			lsh4			llmal			lmmal			lcal			ltoe			lmt1			lmt5			
		X1	Y1	Z1	X2	Y2	Z2	X3	Y3	Z3	X4	Y4	Z4	X5	Y5	Z5	X6	Y6	Z6	X7	Y7	Z7	X8	Y8	Z8	X9	Y9	Z9	X10	Y10	Z10	X11	Y11	Z11	X12	Y12	Z12	X13	Y13	Z13	X14	Y14	Z14	X15	Y15	Z15	X16	Y16	Z16	X17	Y17	Z17	X18	Y18	Z18	X19	Y19	Z19	X20	Y20	Z20	X21	Y21	Z21	X22	Y22	Z22	X23	Y23	Z23	X24	Y24	Z24	X25	Y25	Z25	X26	Y26	Z26	X27	Y27	Z27	X28	Y28	Z28	X29	Y29	Z29	X30	Y30	Z30	X31	Y31	Z31	X32	Y32	Z32	X33	Y33	Z33	X34	Y34	Z34	X35	Y35	Z35	X36	Y36	Z36	X37	Y37	Z37	X38	Y38	Z38	X39	Y39	Z39	X40	Y40	Z40	X41	Y41	Z41	X42	Y42	Z42	X43	Y43	Z43	X44	Y44	Z44	X45	Y45	Z45	X46	Y46	Z46	X47	Y47	Z47	X48	Y48	Z48	X49	Y49	Z49	
750	3.7500	569.210205	1430.890869	563.924744	594.622925	1422.797852	160.491089	547.378296	1480.177734	356.541748	651.331360	1382.826172	364.208374	538.546387	1145.317139	634.465271	632.366760	1019.853455	778.367859	568.190369	1114.191650	127.142006	741.559387	1039.354248	20.681828	478.564758	974.237549	363.764618	636.896118	1017.648010	228.156616	604.468323	1020.533203	513.958862	683.317444	968.223328	260.219574	653.270813	971.586975	494.321167	488.454895	1000.436096	408.413818	499.958954	996.438538	323.889679	554.004517	886.602844	538.544922	569.469727	886.257385	204.939758	589.063171	802.121887	551.374878	606.705750	714.352844	548.644531	580.368530	633.075867	558.304749	639.926514	712.177490	530.556091	559.847473	499.300201	515.199341	563.102661	484.343872	411.030121	530.359009	397.979614	532.582458	544.392517	311.329315	517.351135	514.810974	230.170929	513.757385	564.685120	313.574524	483.595795	503.217773	101.266800	499.446808	515.129395	114.588699	421.569244	451.182587	53.659481	442.766724	726.955933	86.590462	498.849274	615.367798	48.258209	537.604309	657.232544	71.465324	436.084106	597.665222	759.789368	187.685791	607.366699	672.891907	194.155685	641.401001	670.128113	209.861649	570.439392	592.695007	203.270096	562.894287	495.044678	224.065109	559.356262	469.126465	322.022705	536.886230	399.461548	200.061310	555.169739	315.848602	215.200363	529.104431	228.945816	214.313782	574.743164	318.235992	250.347336	518.906128	114.178131	231.619507	541.780151	118.709671	309.739502	468.761261	58.354828	277.555206	751.459473	81.820503	249.386520	674.164429	70.407097	302.644196	646.782898	46.358860	196.253387	
751	3.7550	569.239380	1430.892700	563.953857	594.626465	1422.798340	160.521301	547.410034	1480.171265	356.544891	651.346741	1382.820557	364.239136	538.499268	1145.285156	634.444519	632.328613	1019.830139	778.358398	568.212341	1114.188110	127.153076	741.554504	1039.370728	20.678848	478.560730	974.241089	363.775024	636.889465	1017.664001	228.162323	604.474060	1020.531677	513.952209	682.964417	968.144714	259.758362	653.282898	971.587341	494.334991	488.457367	1000.427246	408.423767	499.966278	996.438721	323.910461	554.004639	886.603394	538.543640	569.475220	886.266602	204.938034	589.083862	802.131897	551.382996	606.716064	714.346619	548.658081	580.378662	633.076599	558.309937	639.943420	712.175110	530.577148	559.837463	499.304321	515.205994	563.133667	484.350037	411.039581	530.372803	397.970734	532.593689	544.390137	311.332825	517.363220	514.838440	230.181915	513.761902	564.668335	313.568604	483.577759	503.217987	101.270821	499.447357	515.120300	114.577133	421.564484	451.179718	53.654316	442.768250	726.967041	86.573730	498.847687	615.391968	48.255577	537.594727	657.248779	71.467842	436.089569	597.675293	759.791260	187.701599	607.391235	672.916626	194.141251	641.409790	670.132385	209.867462	570.449036	592.686157	203.287674	562.888000	495.038300	224.075302	559.347717	469.121033	322.027802	536.893677	399.462677	200.072479	555.188110	315.848572	215.212341	529.191711	228.911575	214.325546	574.757507	318.239746	250.350052	518.919617	114.174507	231.617081	541.796814	118.694244	309.719147	468.770660	58.346603	277.575378	751.491882	81.826935	249.395660	674.182922	70.401375	302.645081	646.776489	46.369034	196.256607	
752	3.7600	569.250305	1430.883911	563.972107	594.642151	1422.799805	160.530304	547.424194	1480.183105	356.557007	651.346863	1382.813721	364.237488	538.512390	1145.284180	634.459167	632.318909	1019.800781	778.357971	568.208862	1114.203003	127.165741	741.552002	1039.390137	20.660931	478.563324	974.247986	363.776367	636.873291	1017.667847	228.176773	604.490906	1020.533875	513.968872	683.338745	968.226685	260.235657	653.289978	971.582764	494.341095	488.466583	1000.443970	408.431091	499.966339	996.448669	323.913025	554.031067	886.616272	538.558838	569.474487	886.275513	204.939056	589.079956	802.112793	551.393494	606.734985	714.347107	548.649658	580.380066	633.074707	558.310425	639.960754	712.179504	530.588257	559.847107	499.301453	515.203552	563.141602	484.368622	411.052856	530.384949	397.978149	532.591919	544.392578	311.330017	517.351257	514.813110	230.192627	513.771301	564.679993	313.575928	483.575897	503.220428	101.274727	499.446930	516.210510	114.120163	421.371918	451.184448	53.657429	442.758942	726.967896	86.568497	498.820740	615.389160	48.283009	537.595581	657.261963	71.447182	436.083527	597.677063	759.784668	187.703278	607.387329	672.924011	194.134796	641.407166	670.134705	209.864777	570.474182	592.688782	203.288956	562.896912	495.038391	224.068619	559.370361	469.127289	322.013550	536.897949	399.442993	200.079605	555.190552	315.852478	215.204651	529.204651	228.928986	214.325256	574.755615	318.225555	250.348999	518.920471	114.174789	231.621094	541.779785	118.710304	309.739410	468.763489	58.363274	277.561951	751.445251	81.818581	249.394119	674.183044	70.402939	302.631500	646.780212	46.388809	196.238739	
753	3.7650	569.276733	1430.870972	563.999878	594.655151	1422.807495	160.528107	547.432190	1480.172607	356.578461	651.343994	1382.819336	364.253082	538.516663	1145.270264	634.464172	632.300354	1019.793091	778.383057	568.210938	1114.214722	127.164726	741.558594	1039.389038	20.668781	478.583893	974.245544	363.786224	636.900635	1017.658936	228.191544	604.498352	1020.527649	513.966919	683.348328	968.226318	260.232269	653.289429	971.583435	494.345459	488.487000	1000.428223	408.440735	499.980469	996.430359	323.917236	554.036194	886.613953	538.562866	569.474854	886.262756	204.955917	589.091858	802.126465	551.400696	606.754456	714.342957	548.666382	580.393433	633.072693	558.325806	639.959167	712.180115	530.592651	559.841980	499.308441	515.211121	563.141357	484.373962	411.053528	530.390869	397.970917	532.608887	544.377319	311.339050	517.359558	514.838745	230.177185	513.774231	564.691223	313.573669	483.603333	503.226349	101.278358	499.461151	515.130493	114.593452	421.577362	451.179688	53.654339	442.768280	726.959290	86.592125	498.833710	615.363342	48.322517	537.562988	657.252258	71.442467	436.091888	597.677917	759.800781	187.709091	607.394409	672.912354	194.159973	641.429504	670.131836	209.865250	570.498413	592.682800	203.282867	562.913330	495.040405	224.076447	559.382019	469.135651	322.032166	536.909058	399.455200	200.074524	555.196045	315.854462	215.191055	529.191711	228.911591	214.325562	574.757568	318.232269	250.342285	518.922607	114.170525	231.616089	541.778503	118.709846	309.737366	468.767609	58.339371	277.566925	751.463196	81.833221	249.399216	674.171570	70.394768	302.652344	646.761719	46.377075	196.255707	
754	3.7700	569.257751	1430.862671	564.008911	594.655273	1422.801636	160.558624	547.440552	1480.183350	356.566193	651.356323	1382.800293	364.276611	538.514404	1145.263916	634.461731	632.270020	1019.765381	778.367920	568.219238	1114.213867	127.163200	741.564392	1039.397949	20.651466	478.589355	974.235596	363.786530	636.902771	1017.660400	228.201736	604.498230	1020.527710	513.966919	683.356995	968.225342	260.243744	653.307312	971.577820	494.353149	488.489624	1000.446228	408.446808	499.981506	996.444580	323.918549	554.054810	886.610840	538.570312	569.489807	886.258789	204.949768	589.102844	802.121033	551.412415	606.752502	714.352295	548.664551	580.393799	633.071472	558.331299	639.968323	712.173950	530.595764	559.861267	499.305298	515.223206	563.145813	484.349701	411.051819	530.385071	397.956085	532.595825	544.375488	311.307831	517.380188	514.834656	230.175415	513.781921	564.687012	313.566864	483.602692	503.213928	101.262695	499.450500	516.219666	114.112984	421.365326	451.179199	53.647915	442.774963	726.972900	86.598541	498.828735	615.391052	48.344738	537.538513	657.246643	71.457741	436.087402	597.700073	759.795654	187.706421	607.394409	672.912354	194.159973	641.445129	670.122314	209.884445	570.498840	592.698792	203.272827	562.932495	495.038269	224.073715	559.384827	469.131256	322.030975	536.917908	399.454224	200.079315	555.201721	315.856384	215.204391	529.183167	228.917496	214.323471	574.760071	318.210785	250.342941	518.919067	114.173866	231.617111	541.787659	118.693741	309.744354	468.762878	58.369301	277.593414	751.471252	81.824211	249.397278	674.173340	70.399864	302.644928	646.753906	46.375351	196.238525	
